<svg version="1.2" xmlns="http://www.w3.org/2000/svg" viewBox="0 0 50 50" width="50" height="50">
	<title>youtube</title>
	<style>
		.s0 { fill: #ff0000 } 
	</style>
	<path class="s0" d="m44.9 14.5c-0.4-2.2-2.3-3.8-4.5-4.3-3.3-0.7-9.4-1.2-16-1.2-6.6 0-12.8 0.5-16.1 1.2-2.2 0.5-4.1 2-4.5 4.3-0.4 2.5-0.8 6-0.8 10.5 0 4.5 0.4 8 0.9 10.5 0.4 2.2 2.3 3.8 4.5 4.3 3.5 0.7 9.5 1.2 16.1 1.2 6.6 0 12.6-0.5 16.1-1.2 2.2-0.5 4.1-2 4.5-4.3 0.4-2.5 0.9-6.1 1-10.5-0.2-4.5-0.7-8-1.2-10.5zm-25.9 17.5v-14l12.2 7z"/>
</svg>